<svg width="290" height="492" viewBox="0 0 290 492" fill="none" xmlns="http://www.w3.org/2000/svg">
<path d="M97.608 246.104L281.664 62.04C286.732 56.984 289.52 50.224 289.52 43.016C289.52 35.804 286.732 29.048 281.664 23.984L265.536 7.864C260.476 2.792 253.712 0 246.504 0C239.296 0 232.54 2.792 227.476 7.864L8.32803 227.008C3.24403 232.088 0.460027 238.876 0.480027 246.092C0.460027 253.34 3.24003 260.12 8.32803 265.204L227.272 484.136C232.336 489.208 239.092 492 246.304 492C253.512 492 260.268 489.208 265.336 484.136L281.46 468.016C291.952 457.524 291.952 440.444 281.46 429.956L97.608 246.104Z" fill="white"/>
</svg>
